<svg width="107" height="32" viewBox="0 0 107 32" fill="none" xmlns="http://www.w3.org/2000/svg">
<g id="LOGO">
<path id="Union" fill-rule="evenodd" clip-rule="evenodd" d="M27.5908 13.7143L16.1622 0H0.162109L11.5907 13.7143L27.5908 13.7143ZM16.1622 32L27.5908 18.2857H11.5907L0.162109 32H16.1622Z" fill="white"/>
<g id="Zuvio">
<path id="Vector" d="M98.5172 24.4749C97.4168 24.4749 96.3821 24.2579 95.4134 23.8239C94.4447 23.3822 93.5922 22.7738 92.8559 21.9988C92.1197 21.2239 91.5423 20.3287 91.1238 19.3135C90.7053 18.2905 90.4961 17.1978 90.4961 16.0353C90.4961 14.8728 90.7053 13.784 91.1238 12.7687C91.5423 11.7458 92.1197 10.8468 92.8559 10.0718C93.5922 9.2968 94.4447 8.69231 95.4134 8.25832C96.3821 7.81657 97.4168 7.5957 98.5172 7.5957C99.6255 7.5957 100.664 7.81657 101.633 8.25832C102.601 8.69231 103.454 9.2968 104.19 10.0718C104.926 10.8468 105.5 11.7458 105.911 12.7687C106.329 13.784 106.538 14.8728 106.538 16.0353C106.538 17.1978 106.329 18.2905 105.911 19.3135C105.5 20.3287 104.926 21.2239 104.19 21.9988C103.454 22.7738 102.601 23.3822 101.633 23.8239C100.664 24.2579 99.6255 24.4749 98.5172 24.4749ZM98.5172 21.6385C99.4705 21.6385 100.338 21.3866 101.121 20.8829C101.912 20.3714 102.539 19.6933 103.004 18.8485C103.469 17.996 103.702 17.0583 103.702 16.0353C103.702 15.0123 103.466 14.0785 102.993 13.2337C102.528 12.3812 101.904 11.7031 101.121 11.1994C100.338 10.6879 99.4705 10.4322 98.5172 10.4322C97.564 10.4322 96.6921 10.6879 95.9017 11.1994C95.1189 11.7031 94.495 12.3812 94.03 13.2337C93.5651 14.0785 93.3326 15.0123 93.3326 16.0353C93.3326 17.0583 93.5651 17.996 94.03 18.8485C94.5028 19.6933 95.1305 20.3714 95.9133 20.8829C96.696 21.3866 97.564 21.6385 98.5172 21.6385Z" fill="white"/>
<path id="Vector_2" d="M85.4414 24.1727V7.89795H88.2779V24.1727H85.4414Z" fill="white"/>
<path id="Vector_3" d="M73.9347 24.1727L68.0293 7.89795H71.0401L75.7482 20.8596L80.4679 7.89795H83.4671L77.5617 24.1727H73.9347Z" fill="white"/>
<path id="Vector_4" d="M59.668 24.4749C58.366 24.4749 57.2229 24.1572 56.2387 23.5217C55.2622 22.8862 54.5027 22.0337 53.9602 20.9642C53.4177 19.887 53.1465 18.6935 53.1465 17.3838V7.89795H55.9829V17.3838C55.9829 18.1588 56.1263 18.8718 56.4131 19.5228C56.6998 20.166 57.1183 20.6814 57.6686 21.0689C58.2188 21.4486 58.8853 21.6385 59.668 21.6385C60.4508 21.6385 61.1134 21.4486 61.6559 21.0689C62.2061 20.6814 62.6207 20.166 62.8997 19.5228C63.1865 18.8795 63.3299 18.1665 63.3299 17.3838V7.89795H66.1663V17.3838C66.1663 18.6935 65.8951 19.887 65.3526 20.9642C64.8101 22.0337 64.0506 22.8862 63.0741 23.5217C62.1054 24.1572 60.97 24.4749 59.668 24.4749Z" fill="white"/>
<path id="Vector_5" d="M38.1387 24.1727V21.3362L47.4734 10.7344H38.1387V7.89795H51.298V10.7344L41.9632 21.3362H51.298V24.1727H38.1387Z" fill="white"/>
</g>
</g>
</svg>
