<svg width="232" height="48" viewBox="0 0 232 48" fill="none" xmlns="http://www.w3.org/2000/svg">
<g id="Frame 345">
<g id="LOGO">
<path id="Union" fill-rule="evenodd" clip-rule="evenodd" d="M42.2855 22.1429L32.9999 11H20L29.2856 22.1429L42.2855 22.1429ZM32.9999 37L42.2855 25.8571L29.2856 25.8571L20 37L32.9999 37Z" fill="#060606"/>
<g id="Zuvio">
<path id="Vector" d="M99.9136 30.8857C99.0195 30.8857 98.1788 30.7094 97.3918 30.3568C96.6047 29.9979 95.912 29.5036 95.3138 28.8739C94.7156 28.2443 94.2465 27.517 93.9065 26.6921C93.5665 25.8609 93.3965 24.9731 93.3965 24.0286C93.3965 23.0841 93.5665 22.1994 93.9065 21.3745C94.2465 20.5433 94.7156 19.8129 95.3138 19.1832C95.912 18.5535 96.6047 18.0624 97.3918 17.7098C98.1788 17.3508 99.0195 17.1714 99.9136 17.1714C100.814 17.1714 101.658 17.3508 102.445 17.7098C103.232 18.0624 103.925 18.5535 104.523 19.1832C105.121 19.8129 105.587 20.5433 105.921 21.3745C106.261 22.1994 106.431 23.0841 106.431 24.0286C106.431 24.9731 106.261 25.8609 105.921 26.6921C105.587 27.517 105.121 28.2443 104.523 28.8739C103.925 29.5036 103.232 29.9979 102.445 30.3568C101.658 30.7094 100.814 30.8857 99.9136 30.8857ZM99.9136 28.5811C100.688 28.5811 101.393 28.3765 102.029 27.9672C102.672 27.5516 103.182 27.0006 103.559 26.3143C103.937 25.6217 104.126 24.8597 104.126 24.0286C104.126 23.1974 103.934 22.4386 103.55 21.7523C103.172 21.0596 102.665 20.5087 102.029 20.0994C101.393 19.6838 100.688 19.476 99.9136 19.476C99.1391 19.476 98.4307 19.6838 97.7884 20.0994C97.1525 20.5087 96.6456 21.0596 96.2678 21.7523C95.89 22.4386 95.7011 23.1974 95.7011 24.0286C95.7011 24.8597 95.89 25.6217 96.2678 26.3143C96.6519 27.0006 97.1619 27.5516 97.7979 27.9672C98.4339 28.3765 99.1391 28.5811 99.9136 28.5811Z" fill="#060606"/>
<path id="Vector_2" d="M89.2891 30.6402V17.417H91.5937V30.6402H89.2891Z" fill="#060606"/>
<path id="Vector_3" d="M79.9387 30.6402L75.1406 17.417H77.5869L81.4122 27.9483L85.2469 17.417H87.6837L82.8856 30.6402H79.9387Z" fill="#060606"/>
<path id="Vector_4" d="M68.3475 30.8858C67.2897 30.8858 66.3609 30.6276 65.5612 30.1113C64.7678 29.5949 64.1508 28.9023 63.71 28.0333C63.2692 27.1581 63.0488 26.1884 63.0488 25.1242V17.417H65.3534V25.1242C65.3534 25.7539 65.4699 26.3332 65.7029 26.8621C65.9359 27.3848 66.2759 27.8035 66.723 28.1183C67.17 28.4269 67.7115 28.5812 68.3475 28.5812C68.9835 28.5812 69.5218 28.4269 69.9626 28.1183C70.4097 27.8035 70.7466 27.3848 70.9732 26.8621C71.2062 26.3395 71.3227 25.7602 71.3227 25.1242V17.417H73.6273V25.1242C73.6273 26.1884 73.4069 27.1581 72.9662 28.0333C72.5254 28.9023 71.9083 29.5949 71.1149 30.1113C70.3278 30.6276 69.4054 30.8858 68.3475 30.8858Z" fill="#060606"/>
<path id="Vector_5" d="M50.8555 30.6402V28.3356L58.4399 19.7216H50.8555V17.417H61.5473V19.7216L53.9629 28.3356H61.5473V30.6402H50.8555Z" fill="#060606"/>
</g>
</g>
</g>
</svg>
