<svg width="146" height="48" viewBox="0 0 146 48" fill="none" xmlns="http://www.w3.org/2000/svg">
<path opacity="0.7" d="M13.2768 22.3183C14.099 19.25 17.2529 16.0961 20.3212 15.2739L39.4502 10.1475C42.5185 9.32522 44.3392 11.146 43.5169 14.2142L38.3906 33.3432C37.5683 36.4115 34.4144 39.5654 31.3461 40.3877L12.2172 45.514C9.1489 46.3363 7.32815 44.5155 8.15042 41.4473L13.2768 22.3183Z" fill="white" fill-opacity="0.6"/>
<path d="M5.60882 14.6493C6.43108 11.5811 9.58498 8.42717 12.6533 7.60491L31.7822 2.47854C34.8505 1.65628 36.6713 3.47702 35.849 6.54529L30.7226 25.6743C29.9004 28.7425 26.7465 31.8964 23.6782 32.7187L4.5492 37.8451C1.48093 38.6673 -0.339816 36.8466 0.482448 33.7783L5.60882 14.6493Z" fill="white" fill-opacity="0.6"/>
<path d="M61.5243 30.2129H67.7963V33.9089H56.7363V14.2529H61.5243V30.2129Z" fill="white" fill-opacity="0.6"/>
<path d="M68.5681 26.0689C68.5681 24.4636 68.8667 23.0543 69.4641 21.8409C70.0801 20.6276 70.9107 19.6943 71.9561 19.0409C73.0014 18.3876 74.1681 18.0609 75.4561 18.0609C76.5574 18.0609 77.5187 18.2849 78.3401 18.7329C79.1801 19.1809 79.8241 19.7689 80.2721 20.4969V18.2849H85.0601V33.9089H80.2721V31.6969C79.8054 32.4249 79.1521 33.0129 78.3121 33.4609C77.4907 33.9089 76.5294 34.1329 75.4281 34.1329C74.1587 34.1329 73.0014 33.8063 71.9561 33.1529C70.9107 32.4809 70.0801 31.5383 69.4641 30.3249C68.8667 29.0929 68.5681 27.6743 68.5681 26.0689ZM80.2721 26.0969C80.2721 24.9023 79.9361 23.9596 79.2641 23.2689C78.6107 22.5783 77.8081 22.2329 76.8561 22.2329C75.9041 22.2329 75.0921 22.5783 74.4201 23.2689C73.7667 23.9409 73.4401 24.8743 73.4401 26.0689C73.4401 27.2636 73.7667 28.2156 74.4201 28.9249C75.0921 29.6156 75.9041 29.9609 76.8561 29.9609C77.8081 29.9609 78.6107 29.6156 79.2641 28.9249C79.9361 28.2343 80.2721 27.2916 80.2721 26.0969Z" fill="white" fill-opacity="0.6"/>
<path d="M103.924 18.2849L94.124 41.3289H88.972L92.556 33.3769L86.2 18.2849H91.548L95.16 28.0569L98.744 18.2849H103.924Z" fill="white" fill-opacity="0.6"/>
<path d="M119.823 25.8449C119.823 26.2929 119.795 26.7596 119.739 27.2449H108.903C108.978 28.2156 109.286 28.9623 109.827 29.4849C110.387 29.9889 111.069 30.2409 111.871 30.2409C113.066 30.2409 113.897 29.7369 114.363 28.7289H119.459C119.198 29.7556 118.722 30.6796 118.031 31.5009C117.359 32.3223 116.51 32.9663 115.483 33.4329C114.457 33.8996 113.309 34.1329 112.039 34.1329C110.509 34.1329 109.146 33.8063 107.951 33.1529C106.757 32.4996 105.823 31.5663 105.151 30.3529C104.479 29.1396 104.143 27.7209 104.143 26.0969C104.143 24.4729 104.47 23.0543 105.123 21.8409C105.795 20.6276 106.729 19.6943 107.923 19.0409C109.118 18.3876 110.49 18.0609 112.039 18.0609C113.551 18.0609 114.895 18.3783 116.071 19.0129C117.247 19.6476 118.162 20.5529 118.815 21.7289C119.487 22.9049 119.823 24.2769 119.823 25.8449ZM114.923 24.5849C114.923 23.7636 114.643 23.1103 114.083 22.6249C113.523 22.1396 112.823 21.8969 111.983 21.8969C111.181 21.8969 110.499 22.1303 109.939 22.5969C109.398 23.0636 109.062 23.7263 108.931 24.5849H114.923Z" fill="white" fill-opacity="0.6"/>
<path d="M126.577 20.8889C127.137 20.0303 127.837 19.3583 128.677 18.8729C129.517 18.3689 130.451 18.1169 131.477 18.1169V23.1849H130.161C128.967 23.1849 128.071 23.4463 127.473 23.9689C126.876 24.4729 126.577 25.3689 126.577 26.6569V33.9089H121.789V18.2849H126.577V20.8889Z" fill="white" fill-opacity="0.6"/>
<path d="M139.562 34.1329C138.199 34.1329 136.986 33.8996 135.922 33.4329C134.858 32.9663 134.018 32.3316 133.402 31.5289C132.786 30.7076 132.441 29.7929 132.366 28.7849H137.098C137.154 29.3263 137.406 29.7649 137.854 30.1009C138.302 30.4369 138.853 30.6049 139.506 30.6049C140.103 30.6049 140.561 30.4929 140.878 30.2689C141.214 30.0263 141.382 29.7183 141.382 29.3449C141.382 28.8969 141.149 28.5703 140.682 28.3649C140.215 28.1409 139.459 27.8983 138.414 27.6369C137.294 27.3756 136.361 27.1049 135.614 26.8249C134.867 26.5263 134.223 26.0689 133.682 25.4529C133.141 24.8183 132.87 23.9689 132.87 22.9049C132.87 22.0089 133.113 21.1969 133.598 20.4689C134.102 19.7223 134.83 19.1343 135.782 18.7049C136.753 18.2756 137.901 18.0609 139.226 18.0609C141.186 18.0609 142.726 18.5463 143.846 19.5169C144.985 20.4876 145.638 21.7756 145.806 23.3809H141.382C141.307 22.8396 141.065 22.4103 140.654 22.0929C140.262 21.7756 139.739 21.6169 139.086 21.6169C138.526 21.6169 138.097 21.7289 137.798 21.9529C137.499 22.1583 137.35 22.4476 137.35 22.8209C137.35 23.2689 137.583 23.6049 138.05 23.8289C138.535 24.0529 139.282 24.2769 140.29 24.5009C141.447 24.7996 142.39 25.0983 143.118 25.3969C143.846 25.6769 144.481 26.1436 145.022 26.7969C145.582 27.4316 145.871 28.2903 145.89 29.3729C145.89 30.2876 145.629 31.1089 145.106 31.8369C144.602 32.5463 143.865 33.1063 142.894 33.5169C141.942 33.9276 140.831 34.1329 139.562 34.1329Z" fill="white" fill-opacity="0.6"/>
</svg>
